<svg width="50" height="80" viewBox="0 0 50 80" fill="none" xmlns="http://www.w3.org/2000/svg">
<rect x="40.5" y="70.5" width="9" height="9" fill="#9CF88D" stroke="black"/>
<rect x="30.5" y="70.5" width="9" height="9" fill="#9CF88D" stroke="black"/>
<rect x="0.5" y="70.5" width="9" height="9" fill="#9CF88D" stroke="black"/>
<rect x="40.5" y="60.5" width="9" height="9" fill="#7B7497" stroke="black"/>
<rect x="30.5" y="60.5" width="9" height="9" fill="#9CF88D" stroke="black"/>
<rect x="10.5" y="60.5" width="19" height="19" fill="#9CF88D" stroke="black"/>
<rect x="0.5" y="60.5" width="9" height="9" fill="#9CF88D" stroke="black"/>
<rect x="40.5" y="50.5" width="9" height="9" fill="#7B7497" stroke="black"/>
<rect x="30.5" y="50.5" width="9" height="9" fill="#7B7497" stroke="black"/>
<rect x="20.5" y="50.5" width="9" height="9" fill="#9CF88D" stroke="black"/>
<rect x="10.5" y="50.5" width="9" height="9" fill="#9CF88D" stroke="black"/>
<rect x="0.5" y="50.5" width="9" height="9" fill="#7B7497" stroke="black"/>
<rect x="40.5" y="40.5" width="9" height="9" fill="#7B7497" stroke="black"/>
<rect x="10.5" y="40.5" width="9" height="9" fill="#7B7497" stroke="black"/>
<rect x="0.5" y="40.5" width="9" height="9" fill="#7B7497" stroke="black"/>
<rect x="40.5" y="30.5" width="9" height="9" fill="#7B7497" stroke="black"/>
<rect x="20.5" y="30.5" width="19" height="19" fill="#9CF88D" stroke="black"/>
<rect x="40.5" y="20.5" width="9" height="9" fill="#7B7497" stroke="black"/>
<rect x="30.5" y="20.5" width="9" height="9" fill="#9CF88D" stroke="black"/>
<rect x="20.5" y="20.5" width="9" height="9" fill="#9CF88D" stroke="black"/>
<rect x="0.5" y="20.5" width="19" height="19" fill="#9CF88D" stroke="black"/>
<rect x="40.5" y="10.5" width="9" height="9" fill="#7B7497" stroke="black"/>
<rect x="30.5" y="10.5" width="9" height="9" fill="#9CF88D" stroke="black"/>
<rect x="20.5" y="10.5" width="9" height="9" fill="#9CF88D" stroke="black"/>
<rect x="10.5" y="10.5" width="9" height="9" fill="#9CF88D" stroke="black"/>
<rect x="0.5" y="10.5" width="9" height="9" fill="#7B7497" stroke="black"/>
<rect x="40.5" y="0.5" width="9" height="9" fill="#7B7497" stroke="black"/>
<rect x="30.5" y="0.5" width="9" height="9" fill="#9CF88D" stroke="black"/>
<rect x="20.5" y="0.5" width="9" height="9" fill="#9CF88D" stroke="black"/>
<rect x="10.5" y="0.5" width="9" height="9" fill="#7B7497" stroke="black"/>
<rect x="0.5" y="0.5" width="9" height="9" fill="#7B7497" stroke="black"/>
</svg>
